<svg xmlns="http://www.w3.org/2000/svg" xmlns:xlink="http://www.w3.org/1999/xlink" width="400" zoomAndPan="magnify" viewBox="0 0 300 299.999988" height="400" preserveAspectRatio="xMidYMid meet" version="1.0"><defs><g/><clipPath id="e93c7f21ab"><path d="M 126.039062 172.019531 L 232.386719 172.019531 L 232.386719 278.367188 L 126.039062 278.367188 Z M 126.039062 172.019531 " clip-rule="nonzero"/></clipPath><clipPath id="b265d013e6"><path d="M 179.210938 172.019531 C 149.847656 172.019531 126.039062 195.828125 126.039062 225.195312 C 126.039062 254.558594 149.847656 278.367188 179.210938 278.367188 C 208.578125 278.367188 232.386719 254.558594 232.386719 225.195312 C 232.386719 195.828125 208.578125 172.019531 179.210938 172.019531 Z M 179.210938 172.019531 " clip-rule="nonzero"/></clipPath><clipPath id="cceaf75f32"><path d="M 21.933594 15.78125 L 48.652344 15.78125 L 48.652344 271.851562 L 21.933594 271.851562 Z M 21.933594 15.78125 " clip-rule="nonzero"/></clipPath><clipPath id="79a24605d9"><path d="M 35.292969 15.78125 C 38.835938 15.78125 42.234375 17.191406 44.738281 19.695312 C 47.242188 22.199219 48.652344 25.597656 48.652344 29.140625 L 48.652344 258.492188 C 48.652344 262.035156 47.242188 265.433594 44.738281 267.9375 C 42.234375 270.441406 38.835938 271.851562 35.292969 271.851562 C 31.75 271.851562 28.351562 270.441406 25.84375 267.9375 C 23.339844 265.433594 21.933594 262.035156 21.933594 258.492188 L 21.933594 29.140625 C 21.933594 25.597656 23.339844 22.199219 25.84375 19.695312 C 28.351562 17.191406 31.75 15.78125 35.292969 15.78125 Z M 35.292969 15.78125 " clip-rule="nonzero"/></clipPath><clipPath id="4257a47202"><path d="M 0.625 15.78125 L 299.539062 15.78125 L 299.539062 42.261719 L 0.625 42.261719 Z M 0.625 15.78125 " clip-rule="nonzero"/></clipPath><clipPath id="448a413553"><path d="M 0.625 29.023438 C 0.625 21.707031 6.554688 15.78125 13.867188 15.78125 L 286.296875 15.78125 C 293.613281 15.78125 299.539062 21.707031 299.539062 29.023438 C 299.539062 36.335938 293.613281 42.261719 286.296875 42.261719 L 13.867188 42.261719 C 6.554688 42.261719 0.625 36.335938 0.625 29.023438 Z M 0.625 29.023438 " clip-rule="nonzero"/></clipPath><clipPath id="d492dd6e9d"><path d="M 21.933594 257.179688 L 35.839844 257.179688 L 35.839844 271.851562 L 21.933594 271.851562 Z M 21.933594 257.179688 " clip-rule="nonzero"/></clipPath><clipPath id="646ec3e750"><path d="M 0.648438 27.59375 L 14.558594 27.59375 L 14.558594 42.265625 L 0.648438 42.265625 Z M 0.648438 27.59375 " clip-rule="nonzero"/></clipPath><clipPath id="d272e5c60a"><path d="M 285.566406 15.78125 L 299.472656 15.78125 L 299.472656 30.453125 L 285.566406 30.453125 Z M 285.566406 15.78125 " clip-rule="nonzero"/></clipPath></defs><g fill="#004aad" fill-opacity="1"><g transform="translate(149.821825, 206.169055)"><g><path d="M 30.640625 0.453125 C 21.628906 0.453125 17.125 -1.953125 17.125 -6.765625 L 17.125 -150.921875 C 17.125 -155.734375 21.628906 -158.140625 30.640625 -158.140625 L 38.515625 -158.140625 C 47.523438 -158.140625 52.03125 -155.734375 52.03125 -150.921875 L 52.03125 -95.28125 L 112.859375 -95.28125 L 112.859375 -150.921875 C 112.859375 -155.734375 117.363281 -158.140625 126.375 -158.140625 L 134.265625 -158.140625 C 143.273438 -158.140625 147.78125 -155.734375 147.78125 -150.921875 L 147.78125 -6.765625 C 147.78125 -1.953125 143.273438 0.453125 134.265625 0.453125 L 126.375 0.453125 C 117.363281 0.453125 112.859375 -1.953125 112.859375 -6.765625 L 112.859375 -65.546875 L 52.03125 -65.546875 L 52.03125 -6.765625 C 52.03125 -1.953125 47.523438 0.453125 38.515625 0.453125 Z M 30.640625 0.453125 "/></g></g></g><g fill="#ff914d" fill-opacity="1"><g transform="translate(47.353519, 214.984191)"><g><path d="M 30.65625 0.46875 C 21.15625 0.46875 16.40625 -2.0625 16.40625 -7.125 L 16.40625 -159.265625 C 16.40625 -164.335938 21.15625 -166.875 30.65625 -166.875 L 40.890625 -166.875 C 44.691406 -166.875 47.859375 -166.4375 50.390625 -165.5625 C 52.929688 -164.6875 54.992188 -162.984375 56.578125 -160.453125 L 110.0625 -77.96875 C 113.226562 -73.375 116.078125 -68.695312 118.609375 -63.9375 L 119.5625 -64.1875 C 119.25 -67.820312 119.09375 -73.207031 119.09375 -80.34375 L 119.09375 -159.265625 C 119.09375 -164.335938 123.84375 -166.875 133.34375 -166.875 L 140.25 -166.875 C 149.75 -166.875 154.5 -164.335938 154.5 -159.265625 L 154.5 -7.125 C 154.5 -2.0625 149.75 0.46875 140.25 0.46875 L 131.21875 0.46875 C 127.40625 0.46875 124.234375 0.0351562 121.703125 -0.828125 C 119.171875 -1.703125 117.113281 -3.40625 115.53125 -5.9375 L 60.859375 -89.609375 C 57.679688 -94.203125 54.828125 -98.878906 52.296875 -103.640625 L 51.34375 -103.40625 C 51.65625 -99.757812 51.8125 -94.367188 51.8125 -87.234375 L 51.8125 -7.125 C 51.8125 -2.0625 47.0625 0.46875 37.5625 0.46875 Z M 30.65625 0.46875 "/></g></g></g><path stroke-linecap="butt" transform="matrix(0.00166818, 0.273939, -0.27427, 0.0016702, 183.797379, 70.766003)" fill="none" stroke-linejoin="miter" d="M 0.000711452 1.99577 L 375.468912 2.000692 " stroke="#ff3131" stroke-width="4" stroke-opacity="1" stroke-miterlimit="4"/><g clip-path="url(#e93c7f21ab)"><g clip-path="url(#b265d013e6)"><path fill="#ffbd59" d="M 126.039062 172.019531 L 232.386719 172.019531 L 232.386719 278.367188 L 126.039062 278.367188 Z M 126.039062 172.019531 " fill-opacity="1" fill-rule="nonzero"/></g></g><path stroke-linecap="butt" transform="matrix(0, 0.274161, -0.274275, 0, 81.897743, 70.764611)" fill="none" stroke-linejoin="miter" d="M 0.00369848 2.005602 L 451.195033 2.005602 " stroke="#ff3131" stroke-width="4" stroke-opacity="1" stroke-miterlimit="4"/><path stroke-linecap="butt" transform="matrix(0.152304, 0.228747, -0.2283, 0.152006, 114.622101, 102.538057)" fill="none" stroke-linejoin="miter" d="M 0.00218875 2.007758 L 231.56661 2.001784 " stroke="#ff3131" stroke-width="4" stroke-opacity="1" stroke-miterlimit="4"/><g clip-path="url(#cceaf75f32)"><g clip-path="url(#79a24605d9)"><path fill="#ff3131" d="M 21.933594 15.78125 L 48.652344 15.78125 L 48.652344 271.851562 L 21.933594 271.851562 Z M 21.933594 15.78125 " fill-opacity="1" fill-rule="nonzero"/></g></g><g clip-path="url(#4257a47202)"><g clip-path="url(#448a413553)"><path fill="#ff3131" d="M 0.625 42.261719 L 0.625 15.78125 L 299.539062 15.78125 L 299.539062 42.261719 Z M 0.625 42.261719 " fill-opacity="1" fill-rule="nonzero"/></g></g><path stroke-linecap="butt" transform="matrix(-0.274457, 0.000000000479018, -0.000000000478701, -0.274275, 248.555962, 126.217811)" fill="none" stroke-linejoin="miter" d="M 0.00464262 2.00471 L 117.922126 2.004711 " stroke="#0d035d" stroke-width="4" stroke-opacity="1" stroke-miterlimit="4"/><path stroke-linecap="butt" transform="matrix(0.000552419, 0.274175, -0.274275, 0.00055262, 280.21176, 65.00615)" fill="none" stroke-linejoin="miter" d="M 0.00203915 1.996897 L 472.185818 1.993706 " stroke="#0d035d" stroke-width="4" stroke-opacity="1" stroke-miterlimit="4"/><path stroke-linecap="butt" transform="matrix(0.000735502, 0.274309, -0.274274, 0.000735409, 35.290781, 51.356206)" fill="none" stroke-linejoin="miter" d="M 0.00618953 2.000179 L 745.915089 2.006532 " stroke="#a80505" stroke-width="4" stroke-opacity="1" stroke-miterlimit="4"/><path stroke-linecap="butt" transform="matrix(-0.274297, -0.000578119, 0.000578071, -0.274275, 280.469925, 29.572924)" fill="none" stroke-linejoin="miter" d="M -0.0057333 2.00343 L 948.938986 1.99713 " stroke="#a80505" stroke-width="4" stroke-opacity="1" stroke-miterlimit="4"/><g clip-path="url(#d492dd6e9d)"><path fill="#ff3131" d="M 21.933594 257.179688 L 35.839844 257.179688 L 35.839844 271.851562 L 21.933594 271.851562 Z M 21.933594 257.179688 " fill-opacity="1" fill-rule="nonzero"/></g><g fill="#ff914d" fill-opacity="1"><g transform="translate(162.283044, 254.476349)"><g><path d="M 3.234375 -6.09375 C 5.816406 -6.644531 7.519531 -7.410156 8.34375 -8.390625 C 9.175781 -9.378906 9.59375 -11.164062 9.59375 -13.75 L 9.6875 -47.78125 C 9.6875 -49.6875 9.453125 -50.960938 8.984375 -51.609375 C 8.523438 -52.253906 7.648438 -52.578125 6.359375 -52.578125 C 5.441406 -52.578125 4.488281 -52.515625 3.5 -52.390625 L 2.859375 -53.40625 L 3.59375 -59.5 L 17.25 -59.40625 C 18.96875 -59.40625 21.707031 -59.5 25.46875 -59.6875 L 31.546875 -59.96875 L 31 -52.953125 C 28.71875 -52.640625 27.222656 -52.175781 26.515625 -51.5625 C 25.816406 -50.945312 25.40625 -49.75 25.28125 -47.96875 C 24.601562 -34.875 24.265625 -23.28125 24.265625 -13.1875 C 24.265625 -10.601562 24.476562 -8.894531 24.90625 -8.0625 C 25.332031 -7.238281 26.222656 -6.828125 27.578125 -6.828125 C 28.992188 -6.828125 30.164062 -6.921875 31.09375 -7.109375 L 31.640625 -6.359375 L 30.8125 0.375 C 24.78125 0.125 19.984375 0 16.421875 0 C 13.472656 0 8.828125 0.210938 2.484375 0.640625 Z M 3.234375 -6.09375 "/></g></g></g><g clip-path="url(#646ec3e750)"><path fill="#ff3131" d="M 0.648438 27.59375 L 14.558594 27.59375 L 14.558594 42.265625 L 0.648438 42.265625 Z M 0.648438 27.59375 " fill-opacity="1" fill-rule="nonzero"/></g><g clip-path="url(#d272e5c60a)"><path fill="#ff3131" d="M 285.566406 15.78125 L 299.472656 15.78125 L 299.472656 30.453125 L 285.566406 30.453125 Z M 285.566406 15.78125 " fill-opacity="1" fill-rule="nonzero"/></g></svg>