<svg xmlns="http://www.w3.org/2000/svg" xmlns:xlink="http://www.w3.org/1999/xlink" width="1207" zoomAndPan="magnify" viewBox="0 0 905.25 270.749989" height="361" preserveAspectRatio="xMidYMid meet" version="1.0"><defs><g/><clipPath id="43e2718729"><path d="M 128.523438 160.582031 L 233.40625 160.582031 L 233.40625 265.464844 L 128.523438 265.464844 Z M 128.523438 160.582031 " clip-rule="nonzero"/></clipPath><clipPath id="d5d9530843"><path d="M 180.964844 160.582031 C 152.003906 160.582031 128.523438 184.058594 128.523438 213.023438 C 128.523438 241.984375 152.003906 265.464844 180.964844 265.464844 C 209.929688 265.464844 233.40625 241.984375 233.40625 213.023438 C 233.40625 184.058594 209.929688 160.582031 180.964844 160.582031 Z M 180.964844 160.582031 " clip-rule="nonzero"/></clipPath><clipPath id="b04ff98f30"><path d="M 25.851562 6.492188 L 52.199219 6.492188 L 52.199219 259.039062 L 25.851562 259.039062 Z M 25.851562 6.492188 " clip-rule="nonzero"/></clipPath><clipPath id="ef5861c1dc"><path d="M 39.027344 6.492188 C 42.519531 6.492188 45.871094 7.882812 48.34375 10.351562 C 50.8125 12.824219 52.199219 16.175781 52.199219 19.667969 L 52.199219 245.863281 C 52.199219 249.355469 50.8125 252.707031 48.34375 255.179688 C 45.871094 257.648438 42.519531 259.039062 39.027344 259.039062 C 35.53125 259.039062 32.179688 257.648438 29.710938 255.179688 C 27.238281 252.707031 25.851562 249.355469 25.851562 245.863281 L 25.851562 19.667969 C 25.851562 16.175781 27.238281 12.824219 29.710938 10.351562 C 32.179688 7.882812 35.53125 6.492188 39.027344 6.492188 Z M 39.027344 6.492188 " clip-rule="nonzero"/></clipPath><clipPath id="581d4f2148"><path d="M 4.835938 6.488281 L 299.636719 6.488281 L 299.636719 32.605469 L 4.835938 32.605469 Z M 4.835938 6.488281 " clip-rule="nonzero"/></clipPath><clipPath id="3939372bf8"><path d="M 4.835938 19.546875 C 4.835938 12.335938 10.683594 6.488281 17.894531 6.488281 L 286.578125 6.488281 C 293.789062 6.488281 299.636719 12.335938 299.636719 19.546875 C 299.636719 26.761719 293.789062 32.605469 286.578125 32.605469 L 17.894531 32.605469 C 10.683594 32.605469 4.835938 26.761719 4.835938 19.546875 Z M 4.835938 19.546875 " clip-rule="nonzero"/></clipPath><clipPath id="d2d754df3c"><path d="M 25.851562 244.566406 L 39.566406 244.566406 L 39.566406 259.039062 L 25.851562 259.039062 Z M 25.851562 244.566406 " clip-rule="nonzero"/></clipPath><clipPath id="15700fe0c8"><path d="M 4.859375 18.144531 L 18.578125 18.144531 L 18.578125 32.613281 L 4.859375 32.613281 Z M 4.859375 18.144531 " clip-rule="nonzero"/></clipPath><clipPath id="3faa5b0b96"><path d="M 285.855469 6.492188 L 299.574219 6.492188 L 299.574219 20.964844 L 285.855469 20.964844 Z M 285.855469 6.492188 " clip-rule="nonzero"/></clipPath></defs><g fill="#ffffff" fill-opacity="1"><g transform="translate(314.833289, 99.283317)"><g><path d="M 67.84375 -18.875 C 67.84375 -15.8125 67.390625 -13.03125 66.484375 -10.53125 C 65.585938 -8.039062 63.988281 -5.910156 61.6875 -4.140625 C 59.394531 -2.378906 56.234375 -1 52.203125 0 C 48.171875 1 43.054688 1.5 36.859375 1.5 C 30.671875 1.5 25.546875 1 21.484375 0 C 17.421875 -1 14.238281 -2.378906 11.9375 -4.140625 C 9.632812 -5.910156 8.035156 -8.039062 7.140625 -10.53125 C 6.242188 -13.03125 5.796875 -15.8125 5.796875 -18.875 L 5.796875 -52.953125 C 5.796875 -56.015625 6.242188 -58.789062 7.140625 -61.28125 C 8.035156 -63.78125 9.632812 -65.929688 11.9375 -67.734375 C 14.238281 -69.535156 17.421875 -70.9375 21.484375 -71.9375 C 25.546875 -72.9375 30.671875 -73.4375 36.859375 -73.4375 C 43.054688 -73.4375 48.171875 -72.9375 52.203125 -71.9375 C 56.234375 -70.9375 59.394531 -69.535156 61.6875 -67.734375 C 63.988281 -65.929688 65.585938 -63.78125 66.484375 -61.28125 C 67.390625 -58.789062 67.84375 -56.015625 67.84375 -52.953125 Z M 28.46875 -22.484375 C 28.46875 -21.148438 28.96875 -20.03125 29.96875 -19.125 C 30.96875 -18.226562 33.265625 -17.78125 36.859375 -17.78125 C 40.460938 -17.78125 42.757812 -18.226562 43.75 -19.125 C 44.75 -20.03125 45.25 -21.148438 45.25 -22.484375 L 45.25 -49.359375 C 45.25 -50.617188 44.75 -51.695312 43.75 -52.59375 C 42.757812 -53.5 40.460938 -53.953125 36.859375 -53.953125 C 33.265625 -53.953125 30.96875 -53.5 29.96875 -52.59375 C 28.96875 -51.695312 28.46875 -50.617188 28.46875 -49.359375 Z M 28.46875 -22.484375 "/></g></g></g><g fill="#ffffff" fill-opacity="1"><g transform="translate(384.266343, 99.283317)"><g><path d="M 25.46875 0 L 10.484375 0 C 9.222656 0 8.304688 -0.28125 7.734375 -0.84375 C 7.171875 -1.414062 6.890625 -2.332031 6.890625 -3.59375 L 6.890625 -68.328125 C 6.890625 -69.597656 7.171875 -70.515625 7.734375 -71.078125 C 8.304688 -71.648438 9.222656 -71.9375 10.484375 -71.9375 L 20.875 -71.9375 C 22.144531 -71.9375 23.226562 -71.734375 24.125 -71.328125 C 25.019531 -70.929688 25.90625 -70.234375 26.78125 -69.234375 L 46.15625 -47.0625 L 46.15625 -68.328125 C 46.15625 -69.597656 46.4375 -70.515625 47 -71.078125 C 47.570312 -71.648438 48.488281 -71.9375 49.75 -71.9375 L 64.734375 -71.9375 C 66.003906 -71.9375 66.921875 -71.648438 67.484375 -71.078125 C 68.046875 -70.515625 68.328125 -69.597656 68.328125 -68.328125 L 68.328125 -3.59375 C 68.328125 -2.332031 68.046875 -1.414062 67.484375 -0.84375 C 66.921875 -0.28125 66.003906 0 64.734375 0 L 49.75 0 C 48.488281 0 47.570312 -0.28125 47 -0.84375 C 46.4375 -1.414062 46.15625 -2.332031 46.15625 -3.59375 L 46.15625 -15.890625 L 29.078125 -36.5625 L 29.078125 -3.59375 C 29.078125 -2.332031 28.789062 -1.414062 28.21875 -0.84375 C 27.65625 -0.28125 26.738281 0 25.46875 0 Z M 25.46875 0 "/></g></g></g><g fill="#ffffff" fill-opacity="1"><g transform="translate(455.297861, 99.283317)"><g><path d="M 61.34375 0 L 10.484375 0 C 9.222656 0 8.304688 -0.28125 7.734375 -0.84375 C 7.171875 -1.414062 6.890625 -2.332031 6.890625 -3.59375 L 6.890625 -68.328125 C 6.890625 -69.597656 7.171875 -70.515625 7.734375 -71.078125 C 8.304688 -71.648438 9.222656 -71.9375 10.484375 -71.9375 L 25.96875 -71.9375 C 27.238281 -71.9375 28.15625 -71.648438 28.71875 -71.078125 C 29.289062 -70.515625 29.578125 -69.597656 29.578125 -68.328125 L 29.578125 -18.875 L 43.265625 -18.875 L 43.265625 -35.0625 C 43.265625 -36.332031 43.546875 -37.25 44.109375 -37.8125 C 44.671875 -38.375 45.585938 -38.65625 46.859375 -38.65625 L 61.34375 -38.65625 C 62.601562 -38.65625 63.515625 -38.375 64.078125 -37.8125 C 64.648438 -37.25 64.9375 -36.332031 64.9375 -35.0625 L 64.9375 -3.59375 C 64.9375 -2.332031 64.648438 -1.414062 64.078125 -0.84375 C 63.515625 -0.28125 62.601562 0 61.34375 0 Z M 61.34375 0 "/></g></g></g><g fill="#ffffff" fill-opacity="1"><g transform="translate(520.534951, 99.283317)"><g><path d="M 8.890625 0 C 7.628906 0 6.710938 -0.28125 6.140625 -0.84375 C 5.578125 -1.414062 5.296875 -2.332031 5.296875 -3.59375 L 5.296875 -15.484375 C 5.296875 -16.753906 5.578125 -17.671875 6.140625 -18.234375 C 6.710938 -18.796875 7.628906 -19.078125 8.890625 -19.078125 L 18.78125 -19.078125 L 18.78125 -52.65625 L 8.890625 -52.65625 C 7.628906 -52.65625 6.710938 -52.9375 6.140625 -53.5 C 5.578125 -54.0625 5.296875 -54.976562 5.296875 -56.25 L 5.296875 -68.328125 C 5.296875 -69.597656 5.578125 -70.515625 6.140625 -71.078125 C 6.710938 -71.648438 7.628906 -71.9375 8.890625 -71.9375 L 51.453125 -71.9375 C 52.710938 -71.9375 53.625 -71.648438 54.1875 -71.078125 C 54.757812 -70.515625 55.046875 -69.597656 55.046875 -68.328125 L 55.046875 -56.25 C 55.046875 -54.976562 54.757812 -54.0625 54.1875 -53.5 C 53.625 -52.9375 52.710938 -52.65625 51.453125 -52.65625 L 41.765625 -52.65625 L 41.765625 -19.078125 L 51.453125 -19.078125 C 52.710938 -19.078125 53.625 -18.796875 54.1875 -18.234375 C 54.757812 -17.671875 55.046875 -16.753906 55.046875 -15.484375 L 55.046875 -3.59375 C 55.046875 -2.332031 54.757812 -1.414062 54.1875 -0.84375 C 53.625 -0.28125 52.710938 0 51.453125 0 Z M 8.890625 0 "/></g></g></g><g fill="#ffffff" fill-opacity="1"><g transform="translate(576.780687, 99.283317)"><g><path d="M 25.46875 0 L 10.484375 0 C 9.222656 0 8.304688 -0.28125 7.734375 -0.84375 C 7.171875 -1.414062 6.890625 -2.332031 6.890625 -3.59375 L 6.890625 -68.328125 C 6.890625 -69.597656 7.171875 -70.515625 7.734375 -71.078125 C 8.304688 -71.648438 9.222656 -71.9375 10.484375 -71.9375 L 20.875 -71.9375 C 22.144531 -71.9375 23.226562 -71.734375 24.125 -71.328125 C 25.019531 -70.929688 25.90625 -70.234375 26.78125 -69.234375 L 46.15625 -47.0625 L 46.15625 -68.328125 C 46.15625 -69.597656 46.4375 -70.515625 47 -71.078125 C 47.570312 -71.648438 48.488281 -71.9375 49.75 -71.9375 L 64.734375 -71.9375 C 66.003906 -71.9375 66.921875 -71.648438 67.484375 -71.078125 C 68.046875 -70.515625 68.328125 -69.597656 68.328125 -68.328125 L 68.328125 -3.59375 C 68.328125 -2.332031 68.046875 -1.414062 67.484375 -0.84375 C 66.921875 -0.28125 66.003906 0 64.734375 0 L 49.75 0 C 48.488281 0 47.570312 -0.28125 47 -0.84375 C 46.4375 -1.414062 46.15625 -2.332031 46.15625 -3.59375 L 46.15625 -15.890625 L 29.078125 -36.5625 L 29.078125 -3.59375 C 29.078125 -2.332031 28.789062 -1.414062 28.21875 -0.84375 C 27.65625 -0.28125 26.738281 0 25.46875 0 Z M 25.46875 0 "/></g></g></g><g fill="#ffffff" fill-opacity="1"><g transform="translate(647.812201, 99.283317)"><g><path d="M 56.84375 0 L 10.484375 0 C 9.222656 0 8.304688 -0.28125 7.734375 -0.84375 C 7.171875 -1.414062 6.890625 -2.332031 6.890625 -3.59375 L 6.890625 -68.328125 C 6.890625 -69.597656 7.171875 -70.515625 7.734375 -71.078125 C 8.304688 -71.648438 9.222656 -71.9375 10.484375 -71.9375 L 56.84375 -71.9375 C 58.113281 -71.9375 59.03125 -71.648438 59.59375 -71.078125 C 60.15625 -70.515625 60.4375 -69.597656 60.4375 -68.328125 L 60.4375 -56.640625 C 60.4375 -55.378906 60.15625 -54.460938 59.59375 -53.890625 C 59.03125 -53.328125 58.113281 -53.046875 56.84375 -53.046875 L 29.265625 -53.046875 L 29.265625 -45.359375 L 48.75 -45.359375 C 50.019531 -45.359375 50.9375 -45.070312 51.5 -44.5 C 52.0625 -43.9375 52.34375 -43.023438 52.34375 -41.765625 L 52.34375 -31.078125 C 52.34375 -29.804688 52.0625 -28.882812 51.5 -28.3125 C 50.9375 -27.75 50.019531 -27.46875 48.75 -27.46875 L 29.265625 -27.46875 L 29.265625 -18.875 L 56.84375 -18.875 C 58.113281 -18.875 59.03125 -18.59375 59.59375 -18.03125 C 60.15625 -17.46875 60.4375 -16.550781 60.4375 -15.28125 L 60.4375 -3.59375 C 60.4375 -2.332031 60.15625 -1.414062 59.59375 -0.84375 C 59.03125 -0.28125 58.113281 0 56.84375 0 Z M 56.84375 0 "/></g></g></g><g fill="#ffffff" fill-opacity="1"><g transform="translate(708.957622, 99.283317)"><g/></g></g><g fill="#ffffff" fill-opacity="1"><g transform="translate(727.239881, 99.283317)"><g/></g></g><g fill="#ffffff" fill-opacity="1"><g transform="translate(314.833289, 242.401156)"><g><path d="M 62.34375 -18.875 C 62.34375 -15.8125 61.910156 -13.03125 61.046875 -10.53125 C 60.179688 -8.039062 58.664062 -5.910156 56.5 -4.140625 C 54.332031 -2.378906 51.347656 -1 47.546875 0 C 43.753906 1 38.925781 1.5 33.0625 1.5 C 27.269531 1.5 22.492188 1 18.734375 0 C 14.972656 -1 12.007812 -2.378906 9.84375 -4.140625 C 7.675781 -5.910156 6.175781 -8.039062 5.34375 -10.53125 C 4.507812 -13.03125 4.09375 -15.8125 4.09375 -18.875 L 4.09375 -35.0625 C 4.09375 -36.332031 4.375 -37.25 4.9375 -37.8125 C 5.507812 -38.375 6.425781 -38.65625 7.6875 -38.65625 L 22.171875 -38.65625 C 23.441406 -38.65625 24.359375 -38.375 24.921875 -37.8125 C 25.492188 -37.25 25.78125 -36.332031 25.78125 -35.0625 L 25.78125 -22.875 C 25.78125 -21.539062 26.195312 -20.425781 27.03125 -19.53125 C 27.863281 -18.632812 29.8125 -18.1875 32.875 -18.1875 C 35.738281 -18.1875 37.550781 -18.632812 38.3125 -19.53125 C 39.082031 -20.425781 39.46875 -21.539062 39.46875 -22.875 L 39.46875 -68.328125 C 39.46875 -69.597656 39.75 -70.515625 40.3125 -71.078125 C 40.875 -71.648438 41.789062 -71.9375 43.0625 -71.9375 L 58.75 -71.9375 C 60.007812 -71.9375 60.921875 -71.648438 61.484375 -71.078125 C 62.054688 -70.515625 62.34375 -69.597656 62.34375 -68.328125 Z M 62.34375 -18.875 "/></g></g></g><g fill="#ffffff" fill-opacity="1"><g transform="translate(379.371052, 242.401156)"><g><path d="M 68.140625 -18.875 C 68.140625 -15.8125 67.6875 -13.03125 66.78125 -10.53125 C 65.882812 -8.039062 64.285156 -5.910156 61.984375 -4.140625 C 59.691406 -2.378906 56.546875 -1 52.546875 0 C 48.554688 1 43.460938 1.5 37.265625 1.5 C 31.066406 1.5 25.96875 1 21.96875 0 C 17.976562 -1 14.832031 -2.378906 12.53125 -4.140625 C 10.238281 -5.910156 8.640625 -8.039062 7.734375 -10.53125 C 6.835938 -13.03125 6.390625 -15.8125 6.390625 -18.875 L 6.390625 -68.328125 C 6.390625 -69.597656 6.671875 -70.515625 7.234375 -71.078125 C 7.804688 -71.648438 8.722656 -71.9375 9.984375 -71.9375 L 25.671875 -71.9375 C 26.941406 -71.9375 27.859375 -71.648438 28.421875 -71.078125 C 28.984375 -70.515625 29.265625 -69.597656 29.265625 -68.328125 L 29.265625 -22.78125 C 29.265625 -21.445312 29.765625 -20.328125 30.765625 -19.421875 C 31.765625 -18.523438 34 -18.078125 37.46875 -18.078125 C 41 -18.078125 43.257812 -18.523438 44.25 -19.421875 C 45.25 -20.328125 45.75 -21.445312 45.75 -22.78125 L 45.75 -68.328125 C 45.75 -69.597656 46.03125 -70.515625 46.59375 -71.078125 C 47.164062 -71.648438 48.085938 -71.9375 49.359375 -71.9375 L 64.546875 -71.9375 C 65.804688 -71.9375 66.71875 -71.648438 67.28125 -71.078125 C 67.851562 -70.515625 68.140625 -69.597656 68.140625 -68.328125 Z M 68.140625 -18.875 "/></g></g></g><g fill="#ffffff" fill-opacity="1"><g transform="translate(449.703239, 242.401156)"><g><path d="M 44.15625 0 L 10.484375 0 C 9.222656 0 8.304688 -0.28125 7.734375 -0.84375 C 7.171875 -1.414062 6.890625 -2.332031 6.890625 -3.59375 L 6.890625 -68.328125 C 6.890625 -69.597656 7.171875 -70.515625 7.734375 -71.078125 C 8.304688 -71.648438 9.222656 -71.9375 10.484375 -71.9375 L 44.15625 -71.9375 C 52.476562 -71.9375 58.65625 -70.269531 62.6875 -66.9375 C 66.71875 -63.601562 68.734375 -58.472656 68.734375 -51.546875 L 68.734375 -20.375 C 68.734375 -13.445312 66.71875 -8.316406 62.6875 -4.984375 C 58.65625 -1.660156 52.476562 0 44.15625 0 Z M 29.578125 -52.84375 L 29.578125 -18.875 L 41.46875 -18.875 C 43.0625 -18.875 44.238281 -19.273438 45 -20.078125 C 45.769531 -20.878906 46.15625 -22.113281 46.15625 -23.78125 L 46.15625 -48.0625 C 46.15625 -49.71875 45.769531 -50.925781 45 -51.6875 C 44.238281 -52.457031 43.0625 -52.84375 41.46875 -52.84375 Z M 29.578125 -52.84375 "/></g></g></g><g fill="#ffffff" fill-opacity="1"><g transform="translate(520.03542, 242.401156)"><g><path d="M 61.84375 0 L 30.375 0 C 22.050781 0 15.875 -1.660156 11.84375 -4.984375 C 7.8125 -8.316406 5.796875 -13.445312 5.796875 -20.375 L 5.796875 -51.546875 C 5.796875 -58.472656 7.8125 -63.601562 11.84375 -66.9375 C 15.875 -70.269531 22.050781 -71.9375 30.375 -71.9375 L 55.34375 -71.9375 C 56.613281 -71.9375 57.53125 -71.648438 58.09375 -71.078125 C 58.65625 -70.515625 58.9375 -69.597656 58.9375 -68.328125 L 58.9375 -56.25 C 58.9375 -54.976562 58.65625 -54.0625 58.09375 -53.5 C 57.53125 -52.9375 56.613281 -52.65625 55.34375 -52.65625 L 34.5625 -52.65625 C 32.5 -52.65625 30.96875 -52.238281 29.96875 -51.40625 C 28.96875 -50.570312 28.46875 -49.320312 28.46875 -47.65625 L 28.46875 -23.78125 C 28.46875 -22.113281 28.847656 -20.878906 29.609375 -20.078125 C 30.378906 -19.273438 31.53125 -18.875 33.0625 -18.875 L 42.765625 -18.875 L 42.765625 -34.46875 C 42.765625 -35.726562 43.046875 -36.640625 43.609375 -37.203125 C 44.171875 -37.773438 45.085938 -38.0625 46.359375 -38.0625 L 61.84375 -38.0625 C 63.101562 -38.0625 64.015625 -37.773438 64.578125 -37.203125 C 65.148438 -36.640625 65.4375 -35.726562 65.4375 -34.46875 L 65.4375 -3.59375 C 65.4375 -2.332031 65.148438 -1.414062 64.578125 -0.84375 C 64.015625 -0.28125 63.101562 0 61.84375 0 Z M 61.84375 0 "/></g></g></g><g fill="#ffffff" fill-opacity="1"><g transform="translate(586.571269, 242.401156)"><g><path d="M 56.84375 0 L 10.484375 0 C 9.222656 0 8.304688 -0.28125 7.734375 -0.84375 C 7.171875 -1.414062 6.890625 -2.332031 6.890625 -3.59375 L 6.890625 -68.328125 C 6.890625 -69.597656 7.171875 -70.515625 7.734375 -71.078125 C 8.304688 -71.648438 9.222656 -71.9375 10.484375 -71.9375 L 56.84375 -71.9375 C 58.113281 -71.9375 59.03125 -71.648438 59.59375 -71.078125 C 60.15625 -70.515625 60.4375 -69.597656 60.4375 -68.328125 L 60.4375 -56.640625 C 60.4375 -55.378906 60.15625 -54.460938 59.59375 -53.890625 C 59.03125 -53.328125 58.113281 -53.046875 56.84375 -53.046875 L 29.265625 -53.046875 L 29.265625 -45.359375 L 48.75 -45.359375 C 50.019531 -45.359375 50.9375 -45.070312 51.5 -44.5 C 52.0625 -43.9375 52.34375 -43.023438 52.34375 -41.765625 L 52.34375 -31.078125 C 52.34375 -29.804688 52.0625 -28.882812 51.5 -28.3125 C 50.9375 -27.75 50.019531 -27.46875 48.75 -27.46875 L 29.265625 -27.46875 L 29.265625 -18.875 L 56.84375 -18.875 C 58.113281 -18.875 59.03125 -18.59375 59.59375 -18.03125 C 60.15625 -17.46875 60.4375 -16.550781 60.4375 -15.28125 L 60.4375 -3.59375 C 60.4375 -2.332031 60.15625 -1.414062 59.59375 -0.84375 C 59.03125 -0.28125 58.113281 0 56.84375 0 Z M 56.84375 0 "/></g></g></g><g fill="#004aad" fill-opacity="1"><g transform="translate(151.97951, 194.259797)"><g><path d="M 30.21875 0.4375 C 21.332031 0.4375 16.890625 -1.929688 16.890625 -6.671875 L 16.890625 -148.859375 C 16.890625 -153.597656 21.332031 -155.96875 30.21875 -155.96875 L 37.984375 -155.96875 C 46.878906 -155.96875 51.328125 -153.597656 51.328125 -148.859375 L 51.328125 -93.984375 L 111.3125 -93.984375 L 111.3125 -148.859375 C 111.3125 -153.597656 115.753906 -155.96875 124.640625 -155.96875 L 132.421875 -155.96875 C 141.304688 -155.96875 145.75 -153.597656 145.75 -148.859375 L 145.75 -6.671875 C 145.75 -1.929688 141.304688 0.4375 132.421875 0.4375 L 124.640625 0.4375 C 115.753906 0.4375 111.3125 -1.929688 111.3125 -6.671875 L 111.3125 -64.65625 L 51.328125 -64.65625 L 51.328125 -6.671875 C 51.328125 -1.929688 46.878906 0.4375 37.984375 0.4375 Z M 30.21875 0.4375 "/></g></g></g><g fill="#ff914d" fill-opacity="1"><g transform="translate(50.921551, 202.953604)"><g><path d="M 30.25 0.46875 C 20.863281 0.46875 16.171875 -2.03125 16.171875 -7.03125 L 16.171875 -157.078125 C 16.171875 -162.078125 20.863281 -164.578125 30.25 -164.578125 L 40.328125 -164.578125 C 44.078125 -164.578125 47.203125 -164.144531 49.703125 -163.28125 C 52.203125 -162.425781 54.234375 -160.75 55.796875 -158.25 L 108.546875 -76.890625 C 111.671875 -72.359375 114.484375 -67.75 116.984375 -63.0625 L 117.921875 -63.296875 C 117.609375 -66.890625 117.453125 -72.203125 117.453125 -79.234375 L 117.453125 -157.078125 C 117.453125 -162.078125 122.140625 -164.578125 131.515625 -164.578125 L 138.3125 -164.578125 C 147.695312 -164.578125 152.390625 -162.078125 152.390625 -157.078125 L 152.390625 -7.03125 C 152.390625 -2.03125 147.695312 0.46875 138.3125 0.46875 L 129.40625 0.46875 C 125.65625 0.46875 122.53125 0.0390625 120.03125 -0.8125 C 117.53125 -1.675781 115.5 -3.359375 113.9375 -5.859375 L 60.015625 -88.390625 C 56.890625 -92.921875 54.078125 -97.53125 51.578125 -102.21875 L 50.640625 -101.984375 C 50.953125 -98.390625 51.109375 -93.070312 51.109375 -86.03125 L 51.109375 -7.03125 C 51.109375 -2.03125 46.421875 0.46875 37.046875 0.46875 Z M 30.25 0.46875 "/></g></g></g><path stroke-linecap="butt" transform="matrix(0.00274212, 0.450294, -0.450825, 0.00274535, 185.395854, 60.722352)" fill="none" stroke-linejoin="miter" d="M 0.0032576 0.99939 L 225.281546 1.000613 " stroke="#ff3131" stroke-width="2" stroke-opacity="1" stroke-miterlimit="4"/><g clip-path="url(#43e2718729)"><g clip-path="url(#d5d9530843)"><path fill="#ffbd59" d="M 128.523438 160.582031 L 233.40625 160.582031 L 233.40625 265.464844 L 128.523438 265.464844 Z M 128.523438 160.582031 " fill-opacity="1" fill-rule="nonzero"/></g></g><path stroke-linecap="butt" transform="matrix(0, 0.451328, -0.450834, 0, 84.898029, 60.721129)" fill="none" stroke-linejoin="miter" d="M 0.00338374 1.004176 L 270.7148 1.004176 " stroke="#ff3131" stroke-width="2" stroke-opacity="1" stroke-miterlimit="4"/><path stroke-linecap="butt" transform="matrix(0.249998, 0.375474, -0.375263, 0.249857, 117.188581, 92.106294)" fill="none" stroke-linejoin="miter" d="M -0.00226341 1.000671 L 138.936609 1.000691 " stroke="#ff3131" stroke-width="2" stroke-opacity="1" stroke-miterlimit="4"/><g clip-path="url(#b04ff98f30)"><g clip-path="url(#ef5861c1dc)"><path fill="#ff3131" d="M 25.851562 6.492188 L 52.199219 6.492188 L 52.199219 259.039062 L 25.851562 259.039062 Z M 25.851562 6.492188 " fill-opacity="1" fill-rule="nonzero"/></g></g><g clip-path="url(#581d4f2148)"><g clip-path="url(#3939372bf8)"><path fill="#ff3131" d="M 4.835938 32.605469 L 4.835938 6.488281 L 299.636719 6.488281 L 299.636719 32.605469 Z M 4.835938 32.605469 " fill-opacity="1" fill-rule="nonzero"/></g></g><path stroke-linecap="butt" transform="matrix(-0.452427, 0.000000000789634, -0.000000000786853, -0.450834, 249.353248, 115.318817)" fill="none" stroke-linejoin="miter" d="M 0.00372521 1.001765 L 70.759307 1.001765 " stroke="#0d035d" stroke-width="2" stroke-opacity="1" stroke-miterlimit="4"/><path stroke-linecap="butt" transform="matrix(0.000907405, 0.45036, -0.450833, 0.000908357, 280.483192, 55.041415)" fill="none" stroke-linejoin="miter" d="M 0.0014286 1.002464 L 283.307538 1.000825 " stroke="#0d035d" stroke-width="2" stroke-opacity="1" stroke-miterlimit="4"/><path stroke-linecap="butt" transform="matrix(0.00121004, 0.451289, -0.450832, 0.00120881, 38.935373, 41.577287)" fill="none" stroke-linejoin="miter" d="M -0.000821609 1.000365 L 447.545781 0.997213 " stroke="#a80505" stroke-width="2" stroke-opacity="1" stroke-miterlimit="4"/><path stroke-linecap="butt" transform="matrix(-0.450548, -0.000949592, 0.000950191, -0.450833, 280.832382, 20.004129)" fill="none" stroke-linejoin="miter" d="M 0.00288069 0.996907 L 569.36144 1.002032 " stroke="#a80505" stroke-width="2" stroke-opacity="1" stroke-miterlimit="4"/><g clip-path="url(#d2d754df3c)"><path fill="#ff3131" d="M 25.851562 244.566406 L 39.566406 244.566406 L 39.566406 259.039062 L 25.851562 259.039062 Z M 25.851562 244.566406 " fill-opacity="1" fill-rule="nonzero"/></g><g fill="#ff914d" fill-opacity="1"><g transform="translate(164.269201, 241.902199)"><g><path d="M 3.1875 -6 C 5.726562 -6.550781 7.410156 -7.3125 8.234375 -8.28125 C 9.054688 -9.25 9.46875 -11.007812 9.46875 -13.5625 L 9.546875 -47.125 C 9.546875 -49.007812 9.316406 -50.269531 8.859375 -50.90625 C 8.410156 -51.539062 7.550781 -51.859375 6.28125 -51.859375 C 5.363281 -51.859375 4.421875 -51.796875 3.453125 -51.671875 L 2.828125 -52.6875 L 3.546875 -58.6875 L 17.015625 -58.59375 C 18.710938 -58.59375 21.410156 -58.679688 25.109375 -58.859375 L 31.109375 -59.140625 L 30.578125 -52.21875 C 28.328125 -51.914062 26.851562 -51.460938 26.15625 -50.859375 C 25.457031 -50.253906 25.050781 -49.070312 24.9375 -47.3125 C 24.257812 -34.394531 23.921875 -22.960938 23.921875 -13.015625 C 23.921875 -10.460938 24.132812 -8.773438 24.5625 -7.953125 C 24.988281 -7.140625 25.867188 -6.734375 27.203125 -6.734375 C 28.597656 -6.734375 29.75 -6.820312 30.65625 -7 L 31.203125 -6.28125 L 30.390625 0.359375 C 24.441406 0.117188 19.707031 0 16.1875 0 C 13.28125 0 8.703125 0.210938 2.453125 0.640625 Z M 3.1875 -6 "/></g></g></g><g clip-path="url(#15700fe0c8)"><path fill="#ff3131" d="M 4.859375 18.144531 L 18.578125 18.144531 L 18.578125 32.613281 L 4.859375 32.613281 Z M 4.859375 18.144531 " fill-opacity="1" fill-rule="nonzero"/></g><g clip-path="url(#3faa5b0b96)"><path fill="#ff3131" d="M 285.855469 6.492188 L 299.574219 6.492188 L 299.574219 20.964844 L 285.855469 20.964844 Z M 285.855469 6.492188 " fill-opacity="1" fill-rule="nonzero"/></g></svg>